<svg width="170" height="39" viewBox="0 0 170 39" fill="none" xmlns="http://www.w3.org/2000/svg">
<g clip-path="url(#clip0_3_49)">
<path d="M170 23.0864V28.3333H164.753V23.0864H170Z" fill="#4FFF4B"/>
<path d="M21.42 1.81331V6.98887H14.3933V28.3333H7.93334V6.98887H0.906677V1.81331H21.42Z" fill="white"/>
<path d="M37.6198 7.02666C40.0376 7.02666 41.9769 7.83258 43.4376 9.44443C44.8984 11.0311 45.6287 13.2222 45.6287 16.0178V28.3333H39.2065V16.8867C39.2065 15.4763 38.8413 14.3807 38.111 13.6C37.3806 12.8193 36.3984 12.4289 35.1643 12.4289C33.9302 12.4289 32.948 12.8193 32.2176 13.6C31.4872 14.3807 31.1221 15.4763 31.1221 16.8867V28.3333H24.6621V0.377762H31.1221V10.0867C31.7769 9.15479 32.671 8.41183 33.8043 7.85776C34.9376 7.30368 36.2095 7.02666 37.6198 7.02666Z" fill="white"/>
<path d="M69.989 17.4533C69.989 18.0578 69.9512 18.6874 69.8757 19.3422H55.2557C55.3564 20.6519 55.772 21.6593 56.5023 22.3644C57.2579 23.0444 58.1771 23.3844 59.2601 23.3844C60.872 23.3844 61.9927 22.7044 62.6223 21.3444H69.4979C69.1453 22.7296 68.5031 23.9763 67.5712 25.0844C66.6646 26.1926 65.5186 27.0615 64.1334 27.6911C62.7483 28.3207 61.1994 28.6356 59.4868 28.6356C57.4216 28.6356 55.5831 28.1948 53.9712 27.3133C52.3594 26.4319 51.1001 25.1726 50.1934 23.5356C49.2868 21.8985 48.8334 19.9844 48.8334 17.7933C48.8334 15.6022 49.2742 13.6882 50.1557 12.0511C51.0623 10.4141 52.3216 9.1548 53.9334 8.27333C55.5453 7.39184 57.3964 6.9511 59.4868 6.9511C61.5268 6.9511 63.3401 7.37924 64.9268 8.23555C66.5134 9.09184 67.7475 10.3133 68.629 11.9C69.5357 13.4867 69.989 15.3378 69.989 17.4533ZM63.3779 15.7533C63.3779 14.6452 63.0001 13.7637 62.2445 13.1089C61.489 12.4541 60.5445 12.1267 59.4112 12.1267C58.3282 12.1267 57.409 12.4415 56.6534 13.0711C55.9231 13.7007 55.4697 14.5948 55.2934 15.7533H63.3779Z" fill="white"/>
<path d="M97.4582 14.7333C98.9945 15.0607 100.229 15.8289 101.16 17.0378C102.092 18.2215 102.558 19.5815 102.558 21.1178C102.558 23.3341 101.777 25.097 100.216 26.4067C98.6797 27.6911 96.5263 28.3333 93.756 28.3333H81.4026V1.81331H93.3404C96.0352 1.81331 98.1382 2.43035 99.6493 3.66442C101.186 4.89849 101.954 6.57331 101.954 8.68886C101.954 10.2503 101.538 11.5474 100.707 12.58C99.9011 13.6126 98.8182 14.3304 97.4582 14.7333ZM87.8626 12.5422H92.0937C93.1515 12.5422 93.9574 12.3156 94.5115 11.8622C95.0908 11.3837 95.3804 10.6911 95.3804 9.78443C95.3804 8.87776 95.0908 8.18517 94.5115 7.70665C93.9574 7.22813 93.1515 6.98887 92.0937 6.98887H87.8626V12.5422ZM92.6226 23.12C93.7056 23.12 94.5367 22.8807 95.116 22.4022C95.7204 21.8985 96.0226 21.1807 96.0226 20.2489C96.0226 19.317 95.7078 18.5867 95.0782 18.0578C94.4737 17.5289 93.63 17.2644 92.5471 17.2644H87.8626V23.12H92.6226Z" fill="white"/>
<path d="M112.765 0.377762V28.3333H106.305V0.377762H112.765Z" fill="white"/>
<path d="M127.042 28.6356C124.977 28.6356 123.114 28.1948 121.451 27.3133C119.814 26.4319 118.517 25.1726 117.56 23.5356C116.628 21.8985 116.162 19.9844 116.162 17.7933C116.162 15.6274 116.641 13.7259 117.598 12.0889C118.555 10.4267 119.865 9.1548 121.527 8.27333C123.189 7.39184 125.053 6.9511 127.118 6.9511C129.183 6.9511 131.047 7.39184 132.709 8.27333C134.371 9.1548 135.681 10.4267 136.638 12.0889C137.595 13.7259 138.074 15.6274 138.074 17.7933C138.074 19.9593 137.582 21.8733 136.6 23.5356C135.643 25.1726 134.321 26.4319 132.634 27.3133C130.971 28.1948 129.108 28.6356 127.042 28.6356ZM127.042 23.0444C128.277 23.0444 129.322 22.5911 130.178 21.6844C131.06 20.7778 131.5 19.4807 131.5 17.7933C131.5 16.1059 131.072 14.8089 130.216 13.9022C129.385 12.9956 128.352 12.5422 127.118 12.5422C125.859 12.5422 124.814 12.9956 123.982 13.9022C123.151 14.7837 122.736 16.0807 122.736 17.7933C122.736 19.4807 123.139 20.7778 123.945 21.6844C124.776 22.5911 125.808 23.0444 127.042 23.0444Z" fill="white"/>
<path d="M149.509 6.9511C150.995 6.9511 152.292 7.25332 153.4 7.85776C154.533 8.46221 155.402 9.25554 156.006 10.2378V7.25332H162.466V28.2956C162.466 30.2348 162.076 31.9852 161.295 33.5467C160.54 35.1333 159.369 36.3926 157.782 37.3245C156.221 38.2563 154.269 38.7222 151.926 38.7222C148.804 38.7222 146.272 37.9793 144.333 36.4933C142.394 35.0326 141.286 33.043 141.009 30.5245H147.393C147.595 31.3304 148.073 31.96 148.829 32.4133C149.584 32.8919 150.516 33.1311 151.624 33.1311C152.959 33.1311 154.017 32.7407 154.798 31.96C155.604 31.2045 156.006 29.983 156.006 28.2956V25.3111C155.377 26.2933 154.508 27.0993 153.4 27.7289C152.292 28.3333 150.995 28.6356 149.509 28.6356C147.771 28.6356 146.197 28.1948 144.786 27.3133C143.376 26.4067 142.255 25.1348 141.424 23.4978C140.618 21.8356 140.215 19.9215 140.215 17.7556C140.215 15.5896 140.618 13.6882 141.424 12.0511C142.255 10.4141 143.376 9.1548 144.786 8.27333C146.197 7.39184 147.771 6.9511 149.509 6.9511ZM156.006 17.7933C156.006 16.1815 155.553 14.9096 154.646 13.9778C153.765 13.0459 152.682 12.58 151.398 12.58C150.113 12.58 149.018 13.0459 148.111 13.9778C147.229 14.8845 146.789 16.1437 146.789 17.7556C146.789 19.3674 147.229 20.6519 148.111 21.6089C149.018 22.5407 150.113 23.0067 151.398 23.0067C152.682 23.0067 153.765 22.5407 154.646 21.6089C155.553 20.677 156.006 19.4052 156.006 17.7933Z" fill="white"/>
</g>
<defs>
<clipPath id="clip0_3_49">
<rect width="170" height="38.8272" fill="white"/>
</clipPath>
</defs>
</svg>
